<svg width="134" height="104" viewBox="0 0 134 104" fill="none" xmlns="http://www.w3.org/2000/svg">
<path d="M116.821 0C127.576 0 134.738 8.71513 132.835 19.4703L121.328 84.2662C119.416 95.0214 109.156 103.737 98.4008 103.737C87.6456 103.737 80.484 95.0214 82.3875 84.2662L93.8939 19.4703C95.8059 8.71513 106.066 0 116.821 0Z" fill="black"/>
<path d="M34.7402 0C45.4954 0 52.657 8.71513 50.7535 19.4703L39.2471 84.2662C37.3351 95.0214 27.075 103.737 16.3197 103.737C5.56453 103.737 -1.59707 95.0214 0.306429 84.2662L11.8128 19.4703C13.7248 8.71513 23.985 0 34.7402 0Z" fill="black"/>
</svg>
